<?xml version="1.0" encoding="iso-8859-1"?>
<!-- Generator: Adobe Illustrator 19.0.0, SVG Export Plug-In . SVG Version: 6.00 Build 0)  -->
<svg version="1.1" id="Layer_1" xmlns="http://www.w3.org/2000/svg" xmlns:xlink="http://www.w3.org/1999/xlink" x="0px" y="0px"
	 viewBox="0 0 511.999 511.999" style="enable-background:new 0 0 511.999 511.999;" xml:space="preserve">
<g>
	<g>
		<path  style="fill:#eee" d="M352.198,166.231c-7.355-5.614-17.231-7.819-26.754-5.216c-12.758,3.49-31.27,7.506-52.638,8.995v-18.337
			c24.392-7.258,42.235-29.874,42.235-56.592c0-27.904-14.031-68.86-53.582-92.458c-5.85-3.486-13.143-3.502-19.009-0.024
			c-5.88,3.487-9.365,9.896-9.097,16.718c0.165,4.242-7.341,14.563-12.822,22.1c-10.502,14.441-23.573,32.413-23.573,53.664
			c0,26.717,17.843,49.333,42.234,56.592v18.318c-21.14-1.513-39.756-5.552-52.68-9.065c-9.521-2.589-19.39-0.366-26.724,5.237
			c-7.559,5.776-12.071,14.903-12.071,24.416v42.698c0,9.137,4.967,17.567,13.365,21.877v230.003
			c0,14.801,12.042,26.843,26.843,26.843h136.151c14.801,0,26.843-12.042,26.843-26.843V255.21
			c8.433-4.34,13.365-12.869,13.365-21.864v-42.683C364.283,181.141,359.766,172.008,352.198,166.231z M229.452,95.081
			c0-10.685,8.824-22.818,17.358-34.552c4.458-6.131,8.989-12.359,12.51-18.817c17.973,17.697,23.227,40.674,23.227,53.368
			c0,14.638-11.91,26.548-26.548,26.548C241.361,121.629,229.452,109.72,229.452,95.081z M317.304,478.384H194.698V250.616
			c16.091-6.762,22.501-6.74,37.788,2.635c6.822,4.184,15.312,9.391,27.305,10.905c13.281,1.679,25.059-1.861,37.108-5.756
			c11.213-3.626,14.605-4.411,20.405-4.188V478.384z M331.79,222.264c-5.961-1.264-12.067-1.828-18.215-1.679
			c-9.693,0.23-18.499,3.077-27.015,5.83c-8.387,2.711-16.109,5.204-22.558,4.39c-4.583-0.579-8.107-2.632-13.941-6.21
			c-12.833-7.87-23.984-12.936-41.413-12.252c-7.42,0.29-16.786,2.895-28.435,7.91v-27.376
			c18.206,4.802,45.483,10.229,75.787,10.229c30.71,0,57.81-5.381,75.789-10.148V222.264z"/>
	</g>
</g>
<g>
</g>
<g>
</g>
<g>
</g>
<g>
</g>
<g>
</g>
<g>
</g>
<g>
</g>
<g>
</g>
<g>
</g>
<g>
</g>
<g>
</g>
<g>
</g>
<g>
</g>
<g>
</g>
<g>
</g>
</svg>
