<?xml version="1.0" encoding="UTF-8" standalone="no"?>
<!DOCTYPE svg PUBLIC "-//W3C//DTD SVG 1.1//EN" "http://www.w3.org/Graphics/SVG/1.1/DTD/svg11.dtd">
<svg width="100%" height="100%" viewBox="0 0 100 125" version="1.1" xmlns="http://www.w3.org/2000/svg" xmlns:xlink="http://www.w3.org/1999/xlink" xml:space="preserve" xmlns:serif="http://www.serif.com/" style="fill-rule:evenodd;clip-rule:evenodd;stroke-linejoin:round;stroke-miterlimit:2;">
    <g>
        <path d="M48.501,9.861C48.501,9.01 50.04,6.81 50.04,6.81C50.04,6.81 51.578,9.009 51.578,9.861C51.578,10.709 50.889,11.398 50.04,11.398C49.187,11.397 48.501,10.708 48.501,9.861Z" style="fill:white;fill-rule:nonzero;"/>
        <path d="M51.94,13.699C51.94,12.67 51.091,11.832 50.04,11.832C48.987,11.832 48.13,12.67 48.13,13.699C48.13,13.724 48.145,13.744 48.145,13.769L48.13,13.769L48.13,32.88L51.941,32.88L51.941,13.769L51.927,13.769C51.928,13.744 51.94,13.724 51.94,13.699Z" style="fill:white;fill-rule:nonzero;"/>
    </g>
    <g>
        <path d="M81.25,14.879C81.25,14.027 82.789,11.828 82.789,11.828C82.789,11.828 84.327,14.027 84.327,14.879C84.327,15.727 83.638,16.415 82.789,16.415C81.936,16.415 81.25,15.726 81.25,14.879Z" style="fill:white;fill-rule:nonzero;"/>
        <path d="M84.689,18.717C84.689,17.688 83.84,16.85 82.789,16.85C81.736,16.85 80.879,17.688 80.879,18.717C80.879,18.742 80.894,18.762 80.894,18.787L80.879,18.787L80.879,32.879L84.69,32.879L84.69,18.787L84.676,18.787C84.677,18.762 84.689,18.742 84.689,18.717Z" style="fill:white;fill-rule:nonzero;"/>
    </g>
    <g>
        <path d="M73.356,14.879C73.356,14.027 74.894,11.828 74.894,11.828C74.894,11.828 76.432,14.027 76.432,14.879C76.432,15.727 75.744,16.415 74.894,16.415C74.041,16.415 73.356,15.726 73.356,14.879Z" style="fill:white;fill-rule:nonzero;"/>
        <path d="M76.794,18.717C76.794,17.688 75.946,16.85 74.894,16.85C73.842,16.85 72.982,17.688 72.982,18.717C72.982,18.742 72.998,18.762 72.998,18.787L72.982,18.787L72.982,32.879L76.794,32.879L76.794,18.787L76.781,18.787C76.782,18.762 76.794,18.742 76.794,18.717Z" style="fill:white;fill-rule:nonzero;"/>
    </g>
    <path d="M79.383,33.604C79.383,34.551 79.909,35.084 80.551,35.391L80.551,36.357L80.567,36.357C80.567,36.385 80.551,36.411 80.551,36.439C80.551,36.876 80.71,37.26 80.929,37.606C80.921,53.994 68.088,67.401 51.948,68.4L51.948,64.245C65.79,63.255 76.759,51.71 76.773,37.622C76.997,37.272 77.159,36.883 77.159,36.44C77.159,36.411 77.143,36.385 77.14,36.358L77.159,36.358L77.159,35.392C77.799,35.084 78.323,34.551 78.323,33.605L71.363,33.605C71.363,34.552 71.888,35.085 72.528,35.392L72.528,36.358L72.544,36.358C72.543,36.386 72.528,36.412 72.528,36.44C72.528,36.893 72.698,37.29 72.931,37.645C72.905,49.605 63.665,59.426 51.947,60.405L51.947,56.208C61.352,55.245 68.716,47.286 68.739,37.637C68.968,37.283 69.135,36.889 69.135,36.439C69.135,36.41 69.12,36.384 69.12,36.357L69.135,36.357L69.135,35.391C69.775,35.083 70.3,34.55 70.3,33.604L63.339,33.604C63.339,34.551 63.864,35.084 64.506,35.391L64.506,36.357L64.522,36.357C64.522,36.385 64.506,36.411 64.506,36.439C64.506,36.886 64.672,37.278 64.899,37.629C64.88,45.16 59.232,51.381 51.948,52.325L51.948,48.091C56.911,47.183 60.691,42.858 60.713,37.641C60.946,37.286 61.114,36.891 61.114,36.439C61.114,36.41 61.098,36.384 61.096,36.357L61.114,36.357L61.114,35.391C61.754,35.083 62.278,34.55 62.278,33.604L55.318,33.604C55.318,34.551 55.843,35.084 56.483,35.391L56.483,36.357L56.498,36.357C56.498,36.385 56.483,36.411 56.483,36.439C56.483,36.884 56.648,37.277 56.874,37.627C56.858,40.719 54.775,43.303 51.947,44.137L51.947,37.635C52.176,37.283 52.342,36.889 52.342,36.44C52.342,36.411 52.327,36.385 52.327,36.358L52.342,36.358L52.342,35.392C52.982,35.084 53.507,34.551 53.507,33.605L46.546,33.605C46.546,34.552 47.071,35.085 47.713,35.392L47.713,36.358L47.729,36.358C47.729,36.386 47.713,36.412 47.713,36.44C47.713,36.888 47.879,37.28 48.107,37.632L48.107,44.138C45.269,43.302 43.177,40.7 43.177,37.594L43.138,37.594C43.351,37.25 43.505,36.87 43.505,36.44C43.505,36.411 43.49,36.385 43.489,36.358L43.505,36.358L43.505,35.392C44.145,35.084 44.67,34.551 44.67,33.605L37.71,33.605C37.71,34.552 38.235,35.085 38.875,35.392L38.875,36.358L38.893,36.358C38.892,36.386 38.875,36.412 38.875,36.44C38.875,36.939 39.074,37.378 39.353,37.753C39.43,42.919 43.18,47.192 48.107,48.092L48.107,52.326C40.813,51.381 35.155,45.141 35.155,37.593L35.145,37.593C35.356,37.249 35.511,36.869 35.511,36.439C35.511,36.41 35.495,36.384 35.495,36.357L35.511,36.357L35.511,35.391C36.151,35.083 36.675,34.55 36.675,33.604L29.715,33.604C29.715,34.551 30.24,35.084 30.882,35.391L30.882,36.357L30.897,36.357C30.897,36.385 30.882,36.411 30.882,36.439C30.882,36.914 31.065,37.332 31.321,37.697C31.373,47.32 38.722,55.248 48.107,56.208L48.107,60.405C36.386,59.426 27.142,49.598 27.122,37.632C27.351,37.279 27.516,36.887 27.516,36.439C27.516,36.41 27.501,36.384 27.5,36.357L27.516,36.357L27.516,35.391C28.156,35.083 28.681,34.55 28.681,33.604L21.72,33.604C21.72,34.551 22.245,35.084 22.885,35.391L22.885,36.357L22.903,36.357C22.902,36.385 22.885,36.411 22.885,36.439C22.885,36.888 23.051,37.282 23.281,37.634C23.302,51.716 34.268,63.255 48.106,64.245L48.106,68.4C31.976,67.401 19.146,54.006 19.126,37.631C19.354,37.28 19.52,36.887 19.52,36.439C19.52,36.41 19.504,36.384 19.504,36.357L19.52,36.357L19.52,35.391C20.16,35.083 20.684,34.55 20.684,33.604L13.724,33.604C13.724,34.551 14.249,35.084 14.89,35.391L14.89,36.357L14.905,36.357C14.905,36.385 14.89,36.411 14.89,36.439C14.89,36.888 15.056,37.282 15.286,37.635C15.307,56.126 29.857,71.235 48.105,72.24L48.105,77.02C46.85,77.705 45.987,79.019 45.987,80.547C45.987,82.081 46.85,83.398 48.105,84.084L48.105,87.793C41.653,87.743 36.711,87.768 36.711,94.575L63.338,94.575C63.338,87.766 58.395,87.743 51.946,87.793L51.946,84.09C53.201,83.405 54.063,82.085 54.063,80.547C54.063,79.016 53.201,77.699 51.946,77.015L51.946,72.241C70.184,71.236 84.728,56.142 84.764,37.663C85.005,37.305 85.179,36.9 85.179,36.44C85.179,36.411 85.164,36.385 85.164,36.358L85.179,36.358L85.179,35.392C85.819,35.084 86.344,34.551 86.344,33.605L79.383,33.605L79.383,33.604Z" style="fill:white;fill-rule:nonzero;"/>
</svg>
