<?xml version="1.0" encoding="UTF-8" standalone="no"?>
<!DOCTYPE svg PUBLIC "-//W3C//DTD SVG 1.1//EN" "http://www.w3.org/Graphics/SVG/1.1/DTD/svg11.dtd">
<svg width="100%" height="100%" viewBox="0 0 128 129" version="1.1" xmlns="http://www.w3.org/2000/svg" xmlns:xlink="http://www.w3.org/1999/xlink" xml:space="preserve" xmlns:serif="http://www.serif.com/" style="fill-rule:evenodd;clip-rule:evenodd;stroke-linejoin:round;stroke-miterlimit:2;">
    <g id="layer1" transform="matrix(1,0,0,1,-193.143,-374.076)">
        <path id="rect4783-8-1" d="M289.475,406.624C289.183,406.618 288.869,406.661 288.595,406.762L279.811,409.938C279.036,410.21 278.406,410.911 278.24,411.715L276.756,419.24L263.554,419.24C262.892,419.24 262.363,419.769 262.363,420.43L262.363,426.091C262.363,426.753 262.892,427.282 263.554,427.282L291.77,427.282C292.432,427.282 292.978,426.753 292.978,426.091L292.978,420.43C292.978,419.769 292.432,419.24 291.77,419.24L281.623,419.24L282.676,413.993L290.217,411.284C291.269,410.921 291.964,409.725 291.788,408.626C291.611,407.527 290.588,406.64 289.475,406.624ZM239.514,427.472C230.642,429.396 223.607,435.182 221.359,442.693C221.134,443.442 221.784,444.316 222.567,444.315L256.358,444.315L239.514,427.472ZM253.924,427.834L270.164,444.073C270.577,443.764 270.765,443.186 270.612,442.693C268.487,435.593 262.104,430.046 253.924,427.834ZM264.9,429.508L264.9,430.129C268.884,433.171 271.861,437.191 273.27,441.899L273.27,441.916C273.756,443.576 273.22,445.078 272.097,446.006L287.991,461.901L289.251,461.901C289.913,461.901 290.442,461.354 290.442,460.692L290.442,429.508L264.9,429.508ZM225.311,447.594C223.937,447.594 222.792,449.035 222.792,450.752C222.792,452.469 223.937,453.893 225.311,453.893L265.936,453.893L259.637,447.594L225.311,447.594ZM229.367,455.55C225.94,455.55 223.205,457.639 222.964,460.192L222.912,460.589L226.536,460.589L226.605,460.261C226.788,459.103 227.951,458.259 229.367,458.259C230.783,458.259 231.979,459.104 232.162,460.261L232.249,460.589L237.616,460.589L237.65,460.261C237.832,459.103 239.013,458.259 240.429,458.259C241.845,458.259 243.041,459.104 243.225,460.261L243.311,460.589L248.678,460.589L248.73,460.261C248.912,459.103 250.092,458.259 251.508,458.259C252.924,458.259 254.121,459.104 254.304,460.261L254.373,460.589L259.757,460.589L259.792,460.261C259.974,459.103 261.154,458.259 262.57,458.259C263.986,458.259 265.2,459.104 265.383,460.261L265.452,460.589L269.059,460.589L269.025,460.192C268.783,457.638 265.997,455.55 262.57,455.55C260.155,455.55 258.16,456.617 257.065,458.121C255.965,456.615 253.926,455.55 251.508,455.55C249.085,455.55 247.095,456.645 246.003,458.156C244.907,456.642 242.871,455.55 240.446,455.55C238.031,455.55 236.019,456.618 234.924,458.121C233.824,456.615 231.785,455.55 229.367,455.55L229.367,455.55ZM223.861,462.263C223.153,462.263 222.602,462.469 222.084,462.867C221.825,463.066 221.557,463.322 221.394,463.799C221.23,464.276 221.383,465.011 221.739,465.404L224.12,468.044C224.185,468.116 224.302,468.345 224.586,468.7C224.871,469.055 225.552,469.528 226.26,469.528L265.729,469.528C266.437,469.528 267.135,469.055 267.42,468.7C267.704,468.345 267.804,468.116 267.868,468.044L270.25,465.404C270.605,465.011 270.742,464.276 270.578,463.799C270.414,463.322 270.147,463.066 269.888,462.867C269.369,462.469 268.835,462.263 268.127,462.263L223.861,462.263Z" style="fill:white;fill-rule:nonzero;"/>
        <path id="path4320" d="M257.134,374.076C221.848,374.076 193.143,402.799 193.143,438.085C193.143,473.371 221.848,502.076 257.134,502.076C292.421,502.076 321.143,473.371 321.143,438.085C321.143,402.799 292.421,374.076 257.134,374.076ZM257.134,384.017C287.048,384.017 311.202,408.171 311.202,438.085C311.202,452.046 305.942,464.747 297.293,474.326L220.893,397.927C230.472,389.278 243.173,384.017 257.134,384.017ZM216.993,401.844L293.375,478.226C283.797,486.87 271.09,492.136 257.134,492.136C227.22,492.136 203.083,467.999 203.083,438.085C203.083,424.129 208.349,411.422 216.993,401.844Z" style="fill:white;fill-rule:nonzero;"/>
    </g>
</svg>
