<?xml version="1.0" encoding="UTF-8" standalone="no"?>
<!DOCTYPE svg PUBLIC "-//W3C//DTD SVG 1.1//EN" "http://www.w3.org/Graphics/SVG/1.1/DTD/svg11.dtd">
<svg width="100%" height="100%" viewBox="0 0 311 311" version="1.1" xmlns="http://www.w3.org/2000/svg" xmlns:xlink="http://www.w3.org/1999/xlink" xml:space="preserve" xmlns:serif="http://www.serif.com/" style="fill-rule:evenodd;clip-rule:evenodd;stroke-linecap:round;stroke-linejoin:round;stroke-miterlimit:1.5;">
    <g transform="matrix(0.743444,-0.744217,0.812895,0.81205,33.9661,190.686)">
        <rect x="-115.55" y="-166.221" width="441.376" height="369.047" style="fill:none;"/>
        <clipPath id="_clip1">
            <rect x="-115.55" y="-166.221" width="441.376" height="369.047"/>
        </clipPath>
        <g clip-path="url(#_clip1)">
            <g transform="matrix(0.671847,0.615725,-0.672545,0.615085,152.568,-406.592)">
                <path d="M488.662,289.798C488.662,272.799 474.861,258.998 457.862,258.998L219.46,258.998C202.461,258.998 188.66,272.799 188.66,289.798L188.66,528.2C188.66,545.199 202.461,559 219.46,559L457.862,559C474.861,559 488.662,545.199 488.662,528.2L488.662,289.798Z" style="fill:none;stroke:white;stroke-width:10px;"/>
            </g>
        </g>
    </g>
    <g id="Artboard1" transform="matrix(1,-5.55112e-17,-5.55112e-17,1,-281.535,-176.967)">
        <rect x="281.535" y="176.967" width="310.002" height="310.002" style="fill:none;"/>
        <clipPath id="_clip2">
            <rect x="281.535" y="176.967" width="310.002" height="310.002"/>
        </clipPath>
        <g clip-path="url(#_clip2)">
            <g transform="matrix(1,0,2.46519e-32,1,98.4104,-76.0646)">
                <clipPath id="_clip3">
                    <rect x="188.66" y="258.998" width="300.002" height="113.705"/>
                </clipPath>
                <g clip-path="url(#_clip3)">
                    <path d="M488.662,289.798C488.662,272.799 474.861,258.998 457.862,258.998L219.46,258.998C202.461,258.998 188.66,272.799 188.66,289.798L188.66,528.2C188.66,545.199 202.461,559 219.46,559L457.862,559C474.861,559 488.662,545.199 488.662,528.2L488.662,289.798Z" style="fill:white;stroke:white;stroke-width:10px;"/>
                </g>
            </g>
            <g transform="matrix(1,-2.46519e-32,0,1,115.76,83.1766)">
                <text x="173.013px" y="202.288px" style="font-family:'HelveticaNeue-Bold', 'Helvetica Neue';font-weight:700;font-size:110px;">Omer</text>
            </g>
            <g transform="matrix(1,-0.000591261,0.000591261,1,1019.47,548.423)">
                <clipPath id="_clip4">
                    <path d="M-449.763,-158.899L-525.489,-83.22L-498.518,-56.232L-422.792,-131.912L-449.763,-158.899Z"/>
                </clipPath>
                <g clip-path="url(#_clip4)">
                    <clipPath id="_clip5">
                        <rect x="-484.531" y="-119.045" width="127.818" height="119.696"/>
                    </clipPath>
                    <g clip-path="url(#_clip5)">
                        <path d="M-184.526,-89.12C-184.526,-105.636 -197.935,-119.045 -214.451,-119.045L-454.605,-119.045C-471.122,-119.045 -484.531,-105.636 -484.531,-89.12L-484.531,151.035C-484.531,167.551 -471.122,180.96 -454.605,180.96L-214.451,180.96C-197.935,180.96 -184.526,167.551 -184.526,151.035L-184.526,-89.12Z" style="fill:white;stroke:white;stroke-width:10px;"/>
                    </g>
                </g>
            </g>
        </g>
    </g>
</svg>
