<?xml version="1.0" encoding="UTF-8" standalone="no"?>
<!DOCTYPE svg PUBLIC "-//W3C//DTD SVG 1.1//EN" "http://www.w3.org/Graphics/SVG/1.1/DTD/svg11.dtd">
<svg width="100%" height="100%" viewBox="0 0 100 125" version="1.1" xmlns="http://www.w3.org/2000/svg" xmlns:xlink="http://www.w3.org/1999/xlink" xml:space="preserve" xmlns:serif="http://www.serif.com/" style="fill-rule:evenodd;clip-rule:evenodd;stroke-linejoin:round;stroke-miterlimit:2;">
    <g>
        <path d="M90.111,85.294C88.66,85.028 87.426,84.709 86.173,84.589C80.003,83.999 73.865,84.007 67.852,85.821C67.43,85.969 66.994,86.074 66.551,86.133C59.874,86.709 53.224,87.057 46.568,85.652C43.438,84.991 40.278,84.55 37.327,83.238C36.981,83.099 36.621,82.999 36.253,82.942C30.783,81.914 25.326,80.804 19.832,79.929C18.263,79.679 16.587,80.15 14.957,80.233C12.89,80.427 10.813,80.487 8.738,80.414C5.162,80.132 4.147,77.774 6.246,74.901C7.279,73.446 8.386,72.045 9.565,70.704C12.466,67.496 14.809,63.824 16.498,59.842C17.821,56.767 19.542,53.878 21.617,51.251C23.403,48.965 25.113,46.62 26.872,44.313C30.334,39.773 34.822,36.342 39.183,32.745C42.633,29.924 45.912,26.9 49.003,23.69C50.878,21.725 52.134,19.18 53.767,16.969C54.559,15.811 55.522,14.78 56.623,13.91C57.072,13.564 57.624,13.376 58.191,13.376C59.298,13.376 60.287,14.091 60.633,15.143C60.913,15.672 61.098,16.245 61.181,16.838C61.5,21.143 64.168,24.214 66.719,27.303C70.029,31.312 73.49,35.195 76.852,39.161C80.351,43.438 82.888,48.419 84.289,53.764C85.285,57.256 85.86,60.866 86.739,64.394C87.246,66.874 87.983,69.301 88.94,71.644C90.232,74.449 91.46,77.35 93.553,79.725C93.911,80.105 94.221,80.528 94.474,80.984C94.729,81.387 94.864,81.853 94.864,82.33C94.864,83.47 94.088,84.475 92.984,84.762C92.039,85.003 91.079,85.18 90.111,85.294ZM47.219,45.878L46.83,46.603C45.246,48.721 43.782,50.897 43.594,53.731L44.87,51.956C45.398,52.32 45.903,52.669 46.876,53.339C45.242,53.242 44.516,53.783 44.497,54.929C43.404,55.074 41.977,53.978 41.781,56.056C42.405,56.137 43.026,56.217 43.663,56.298C43.441,57.013 43.263,57.587 43.083,58.169C42.436,58.214 41.773,58.26 40.83,58.326C42.091,59.001 43.434,59.29 43.911,60.092C44.3,60.777 45.002,61.227 45.786,61.294C47.237,61.619 48.711,61.868 50.132,62.295C55.509,63.909 60.838,62.889 66.182,62.183C65.693,54.166 57.567,43.171 52.313,39.482C50.385,41.423 48.37,43.3 47.219,45.878ZM66.382,29.861C65.688,28.756 65.254,27.438 63.898,26.878C62.949,26.486 62.003,26.083 61.073,25.649C60.903,25.469 60.773,25.256 60.689,25.023C61.069,24.95 61.344,24.897 61.619,24.845C61.877,24.795 62.135,24.746 62.912,24.598C61.064,23.268 59.577,22.196 57.941,21.019C58.884,20.842 59.643,20.699 60.398,20.557C59.729,16.806 59.729,16.806 58.428,15.736C57.539,19.447 56.66,23.027 55.829,26.617C54.994,30.227 54.208,33.848 53.439,37.291C56.029,40.343 58.704,43.245 61.09,46.368C64.475,50.554 66.837,55.471 67.99,60.728C68.442,63.098 69.679,65.248 71.5,66.831C73.86,68.872 76.369,70.747 78.869,72.62C83.028,75.736 88.199,77.305 91.92,81.109C92.29,81.216 92.677,81.253 93.061,81.216C92.028,79.909 91.255,78.929 90.481,77.95C90.056,77.532 89.69,77.058 89.395,76.54C88.198,73.522 86.658,70.638 85.969,67.418C85.162,63.644 84.244,59.894 83.372,56.134C81.798,49.278 78.476,42.946 73.729,37.755C71.492,35.28 69.186,32.866 66.912,30.424C66.735,30.236 66.559,30.049 66.382,29.861L66.382,29.861ZM9.151,78.685C10.651,79.074 12.22,79.114 13.737,78.803C17.452,77.968 21.309,77.994 25.012,78.878C29.044,79.866 33.147,80.565 37.218,81.399C37.731,81.493 38.235,81.628 38.726,81.804C43.495,83.5 48.479,84.516 53.531,84.822C55.597,85.074 57.678,85.168 59.758,85.105C64.646,84.708 69.506,84.016 74.311,83.033C77.11,82.648 79.94,82.54 82.76,82.709C84.75,82.733 86.737,83.066 88.726,83.244C89.773,83.338 90.823,83.395 92.033,83.48C90.734,82.503 89.694,81.688 88.62,80.922C87.243,79.805 85.775,78.805 84.232,77.93C78.882,75.33 74.344,71.627 69.894,67.78C69.65,67.606 69.446,67.382 69.294,67.124C68.04,64.307 65.818,63.788 63.06,64.404C62.414,64.549 61.715,64.443 61.061,64.566C57.376,65.155 53.609,64.972 49.999,64.028C47.246,63.402 44.485,62.807 41.711,62.286C40.779,62.037 39.801,62.019 38.86,62.232C36.742,62.92 34.689,63.79 32.722,64.834C29.601,66.546 26.654,68.574 23.546,70.309C20.63,71.938 17.613,73.389 14.614,74.863C12.588,75.815 10.74,77.108 9.151,78.685ZM56.676,16.184L56.302,16.038C55.846,16.404 55.425,16.811 55.046,17.256C53.933,18.825 52.9,20.451 51.798,22.027C50.951,23.43 49.969,24.747 48.866,25.959C45.964,28.726 42.936,31.365 39.881,33.965C38.017,35.553 35.851,36.811 34.106,38.51C31.745,40.868 29.507,43.347 27.403,45.937C25.595,48.106 23.967,50.425 22.287,52.699C21.207,54.027 20.226,55.433 19.353,56.906C17.27,60.84 15.34,64.856 13.358,68.824C13.669,68.911 14.076,69.026 14.669,69.192C13.228,70.878 10.851,70.956 9.734,73.021C11.73,72.772 13.066,71.284 14.819,71.118L15.041,71.563C12.532,73.067 10.023,74.571 7.514,76.075C7.943,76.243 8.428,76.2 8.821,75.959C10.047,75.266 11.219,74.472 12.475,73.842C16.388,71.879 20.382,70.073 24.242,68.015C27.115,66.483 29.816,64.632 32.619,62.966C33.897,62.206 35.276,61.614 36.533,60.823C37.301,60.39 37.957,59.784 38.45,59.053C39.751,56.8 41.003,54.505 42.076,52.136C44.129,47.506 46.837,43.195 50.115,39.334C51.048,38.19 51.735,36.866 52.132,35.444C53.216,31.74 54.137,27.986 55.026,24.229C55.657,21.567 56.131,18.867 56.676,16.184ZM40.115,59.624L40.023,60.105C40.804,60.264 41.585,60.424 42.367,60.583L42.441,60.188C41.665,60 40.89,59.812 40.115,59.624Z" style="fill:white;fill-rule:nonzero;"/>
        <path d="M47.219,45.878C48.517,45.782 49.803,46.193 50.806,47.022C49.076,51.202 47.372,55.318 45.669,59.433L45.289,59.341C45.297,58.891 45.363,58.445 45.485,58.012C46.696,55.157 47.984,52.335 49.148,49.461C49.312,49.055 50.346,48.36 49.107,47.894C49.029,47.818 48.952,47.743 48.875,47.667C48.486,47.431 48.105,47.179 47.704,46.965C47.419,46.829 47.127,46.708 46.83,46.603L47.219,45.878Z" style="fill:white;fill-rule:nonzero;"/>
        <path d="M66.912,30.424C66.883,30.71 66.855,30.995 66.791,31.641C65.66,31.013 64.712,30.488 63.765,29.963L63.973,29.382C64.776,29.541 65.579,29.701 66.382,29.861C66.559,30.049 66.735,30.236 66.912,30.424Z" style="fill:white;fill-rule:nonzero;"/>
        <path d="M73.935,79.47C74.214,79.862 74.5,80.264 74.753,80.618C76.623,80.719 78.155,79.044 80.438,79.919C78.55,80.808 76.522,81.357 74.444,81.542C74.074,81.513 73.727,81.347 73.473,81.076C72.709,80.217 71.478,79.934 70.416,80.371C70.504,79.935 70.559,79.663 70.628,79.324C70.082,79.047 69.519,78.763 68.878,78.438C69.573,77.202 70.443,77.896 71.039,78.125C72.612,78.728 73.879,78.312 75.296,77.267C74.107,76.066 72.274,75.755 70.755,76.496C68.808,77.348 66.749,77.944 64.302,78.805C68.03,76.125 73.824,73.98 76.185,74.402C75.677,74.845 75.286,75.186 74.74,75.661C75.957,76.149 77.086,76.601 78.396,77.127C78.427,77.578 78.471,78.215 78.534,79.123C76.865,78.294 75.371,78.135 73.935,79.47Z" style="fill:white;fill-rule:nonzero;"/>
        <path d="M63.072,80.279C65.428,79.112 67.399,79.836 68.573,82.405C67.73,81.883 66.856,81.413 65.955,80.999C65.009,80.702 64.046,80.462 63.072,80.279Z" style="fill:white;fill-rule:nonzero;"/>
        <path d="M63.687,83.24L59.563,81.22C61.469,80.7 62.639,81.859 64.005,82.562L63.687,83.24Z" style="fill:white;fill-rule:nonzero;"/>
        <path d="M79.084,58.812C79.69,59.481 79.444,60.753 80.615,61.075C81.698,57.521 79.996,54.593 76.351,53.637C77.229,52.536 77.229,52.536 79.629,53.184C79.734,52.198 79.837,51.237 79.94,50.275C81.21,58.393 83.937,66.133 85.872,74.049C85.63,74.12 85.388,74.192 85.146,74.263C84.565,72.739 83.984,71.214 83.403,69.69L83.434,69.73C82.938,67.652 82.486,65.562 81.91,63.506C81.574,63.006 81.141,62.578 80.638,62.246C80.306,64.416 82.15,65.861 81.323,67.7C80.54,67.008 79.782,66.337 78.885,65.544C79.522,64.664 80.278,63.595 79.066,62.266C78.615,62.154 78.002,62.001 76.943,61.738L78.795,60.793L78.795,59.108C78.891,59.009 78.987,58.91 79.084,58.812Z" style="fill:white;fill-rule:nonzero;"/>
        <path d="M71.344,43.776C71.832,43.482 72.32,43.188 72.819,42.887C72.719,41.363 71.516,41.132 70.399,40.961C70.463,39.916 70.521,38.975 70.59,37.859L67.431,36.887C69.123,35.708 71.02,36.33 71.426,38.169C71.415,38.453 71.473,38.736 71.595,38.993C73.235,40.273 73.914,42.312 75.337,43.721C76.629,45 76.425,46.755 77.155,48.158L72.206,46.62L72.2,46.361L74.961,46.361C75.064,45.306 74.287,44.35 73.232,44.236C72.583,44.112 71.95,43.902 71.31,43.73L71.344,43.776Z" style="fill:white;fill-rule:nonzero;"/>
        <path d="M60.95,37.111C59.034,35.588 57.525,33.612 56.561,31.362C57.867,31.76 59.83,34.365 60.95,37.111Z" style="fill:white;fill-rule:nonzero;"/>
        <path d="M60.163,30.626C58.959,28.936 57.34,27.475 57.143,25.228C58.653,26.695 59.703,28.571 60.163,30.626Z" style="fill:white;fill-rule:nonzero;"/>
        <path d="M71.31,43.73C71.233,44.311 70.835,44.62 70.437,44.178C69.098,42.919 68.14,41.31 67.672,39.533C68.896,40.947 70.12,42.362 71.344,43.776L71.31,43.73Z" style="fill:white;fill-rule:nonzero;"/>
        <path d="M77.619,52.085C76.014,51.559 74.81,51.165 73.585,50.764C74.893,49.432 76.322,49.805 77.619,52.085Z" style="fill:white;fill-rule:nonzero;"/>
        <path d="M83.403,69.69C83.316,70.277 83.078,70.701 82.398,70.417C81.463,70.026 80.549,69.587 79.58,69.147C80.851,68.354 80.864,68.356 83.434,69.73L83.403,69.69Z" style="fill:white;fill-rule:nonzero;"/>
        <path d="M64.185,32.738C65.596,32.798 67.048,32.739 68.055,33.982L67.873,34.512L64.033,33.182L64.185,32.738Z" style="fill:white;fill-rule:nonzero;"/>
        <path d="M78.795,59.108C77.683,58.989 76.571,58.87 75.228,58.727C76.72,57.576 77.831,57.666 79.084,58.812C78.987,58.91 78.891,59.009 78.795,59.108Z" style="fill:white;fill-rule:nonzero;"/>
        <path d="M47.174,51.805C45.879,51.289 45.879,51.289 46.714,49.675C47.349,50.186 47.542,51.078 47.174,51.805Z" style="fill:white;fill-rule:nonzero;"/>
        <path d="M51.987,43.889C51.083,43.718 51.041,42.903 51.107,41.969L52.458,43.476L51.987,43.889Z" style="fill:white;fill-rule:nonzero;"/>
        <path d="M49.531,44.699C50.011,44.743 50.491,44.788 50.971,44.833L51.028,45.262C50.769,45.395 50.49,45.487 50.202,45.533C49.947,45.48 49.703,45.378 49.486,45.232L49.531,44.699Z" style="fill:white;fill-rule:nonzero;"/>
        <path d="M49.107,47.893C48.703,48.951 48.118,48.842 46.983,47.953C47.881,47.817 48.378,47.742 48.875,47.667C48.952,47.743 49.029,47.818 49.107,47.893Z" style="fill:white;fill-rule:nonzero;"/>
    </g>
</svg>
