<?xml version="1.0" encoding="UTF-8" standalone="no"?>
<!DOCTYPE svg PUBLIC "-//W3C//DTD SVG 1.1//EN" "http://www.w3.org/Graphics/SVG/1.1/DTD/svg11.dtd">
<svg width="100%" height="100%" viewBox="0 0 90 90" version="1.1" xmlns="http://www.w3.org/2000/svg" xmlns:xlink="http://www.w3.org/1999/xlink" xml:space="preserve" xmlns:serif="http://www.serif.com/" style="fill-rule:evenodd;clip-rule:evenodd;stroke-linejoin:round;stroke-miterlimit:2;">
    <g transform="matrix(1,0,0,1,-5,-5)">
        <path d="M95,17C95,14.791 93.209,13 91,13L84,13L84,9C84,6.791 82.209,5 80,5C77.791,5 76,6.791 76,9L76,13L69,13C66.791,13 65,14.791 65,17C65,19.209 66.791,21 69,21L69,22L31,22L31,21C33.209,21 35,19.209 35,17C35,14.791 33.209,13 31,13L24,13L24,9C24,6.791 22.209,5 20,5C17.791,5 16,6.791 16,9L16,13L9,13C6.791,13 5,14.791 5,17C5,19.209 6.791,21 9,21L9,79C6.791,79 5,80.791 5,83C5,85.209 6.791,87 9,87L16,87L16,91C16,93.209 17.791,95 20,95C22.209,95 24,93.209 24,91L24,87L31,87C33.209,87 35,85.209 35,83C35,80.791 33.209,79 31,79L31,78L69,78L69,79C66.791,79 65,80.791 65,83C65,85.209 66.791,87 69,87L76,87L76,91C76,93.209 77.791,95 80,95C82.209,95 84,93.209 84,91L84,87L91,87C93.209,87 95,85.209 95,83C95,80.791 93.209,79 91,79L91,21C93.209,21 95,19.209 95,17ZM17,79L17,21L23,21L23,79L17,79ZM31,70L31,30L69,30L69,70L31,70ZM83,79L77,79L77,21L83,21L83,79Z" style="fill:white;fill-rule:nonzero;stroke:white;stroke-width:1px;"/>
    </g>
    <g transform="matrix(1,0,0,1,-5,-5)">
        <path d="M39,42L55,42C57.209,42 59,40.209 59,38C59,35.791 57.209,34 55,34L39,34C36.791,34 35,35.791 35,38C35,40.209 36.791,42 39,42Z" style="fill:white;fill-rule:nonzero;stroke:white;stroke-width:1px;"/>
    </g>
    <g transform="matrix(1,0,0,1,-5,-5)">
        <path d="M61,58L39,58C36.791,58 35,59.791 35,62C35,64.209 36.791,66 39,66L61,66C63.209,66 65,64.209 65,62C65,59.791 63.209,58 61,58Z" style="fill:white;fill-rule:nonzero;stroke:white;stroke-width:1px;"/>
    </g>
    <g transform="matrix(1,0,0,1,-5,-5)">
        <path d="M39,54L50,54C52.209,54 54,52.209 54,50C54,47.791 52.209,46 50,46L39,46C36.791,46 35,47.791 35,50C35,52.209 36.791,54 39,54Z" style="fill:white;fill-rule:nonzero;stroke:white;stroke-width:1px;"/>
    </g>
</svg>
