<?xml version="1.0" encoding="UTF-8" standalone="no"?>
<!DOCTYPE svg PUBLIC "-//W3C//DTD SVG 1.1//EN" "http://www.w3.org/Graphics/SVG/1.1/DTD/svg11.dtd">
<svg width="100%" height="100%" viewBox="0 0 500 500" version="1.1" xmlns="http://www.w3.org/2000/svg" xmlns:xlink="http://www.w3.org/1999/xlink" xml:space="preserve" xmlns:serif="http://www.serif.com/" style="fill-rule:evenodd;clip-rule:evenodd;stroke-linejoin:round;stroke-miterlimit:2;">
    <g transform="matrix(5.47773,0,0,5.47773,-20.3604,-21.2882)">
        <path d="M83.572,88.935C83.572,88.935 84.434,88.714 83.266,87.05C82.098,85.388 78.696,83.323 78.696,83.323C78.696,83.323 78.671,83.373 78.587,83.457C78.66,83.232 78.687,82.954 78.634,82.594C78.291,80.273 77.114,80.226 77.114,80.226C77.114,80.226 78.289,76.749 76.222,76.629C74.157,76.508 72.82,76.327 72.82,76.327C72.82,76.327 73.934,70.362 72.147,70.071C70.36,69.781 69.657,70.133 69.657,70.133C69.657,70.133 70.53,66.536 68.937,66.817C67.345,67.097 66.604,67.013 66.604,67.013C66.604,67.013 66.785,63.914 64.889,64.074L62.993,64.233C62.993,64.233 63.818,61.815 61.377,62.462C61.377,62.462 60.562,59.742 60.5,59.012L59.907,59.699C59.919,59.592 59.93,59.485 59.94,59.356C59.94,59.356 64.715,42.801 66.792,41.306C66.792,41.306 72.805,41.241 72.5,39.358C72.196,37.474 68.404,37.793 68.404,37.793C68.404,37.793 68.719,36.3 69.462,36.383C70.201,36.468 74.868,37.837 74.223,35.396C74.095,34.911 73.931,34.566 73.751,34.318C75.592,34.624 78.232,34.792 77.999,33.171C77.645,30.705 74.838,30.5 72.251,31.158L74.094,26.891C74.094,26.891 73.731,26.04 72.528,27.463C71.327,28.886 70.416,30.284 70.416,30.284C70.416,30.284 71.544,26.225 69.419,27.138C67.292,28.05 68.242,30.612 68.242,30.612C68.242,30.612 66.139,30.054 65.655,31.27C65.171,32.487 66.387,34.732 66.387,34.732C66.387,34.732 63.943,33.618 63.75,36.57C63.323,33.229 59.776,36.464 59.776,36.464C59.776,36.464 58.94,35.213 59.96,35.127C60.979,35.041 64.757,34.576 64.124,32.279C63.49,29.985 60.551,31.7 60.551,31.7C60.551,31.7 61.117,26.221 60.607,25.383C60.097,24.545 58.898,31.252 58.898,31.252C58.898,31.252 55.617,28.885 54.793,31.304C53.968,33.723 57.018,35.08 57.018,35.08C57.018,35.08 53.677,35.509 53.911,38.278C54.005,39.392 54.501,39.897 55.058,40.11C54.025,40.301 52.957,40.901 53.102,42.605C53.371,45.812 55.8,45.021 55.8,45.021C55.8,45.021 55.083,45.239 54.505,45.754C53.2,43.804 50.089,38.922 51.614,38.912C53.522,38.898 53.996,37.538 53.664,35.363C53.336,33.188 50.643,36.057 50.533,36.507C50.424,36.957 49.925,34.503 49.925,34.503C52.439,34.732 52.875,32.934 52.727,31.185C52.611,29.796 50.976,30.107 50.305,30.295C51.138,30.005 53.491,28.946 52.905,26.325C52.2,23.154 48.582,27.275 48.582,27.275C48.631,26.096 47.535,23.546 46.806,23.607C46.076,23.669 47.003,27.701 47.003,27.701C46.396,27.46 44.391,28.068 44.429,30.266C44.456,31.832 46.011,32.151 46.908,32.206C46.318,32.301 45.499,32.722 45.355,34.3C45.236,35.599 46.048,36.308 46.86,36.693C46.37,36.848 46.001,37.478 46.21,39.221C46.699,43.291 50.888,40.737 50.949,41.464C51.003,42.107 53.357,45.739 53.918,46.599C53.83,46.836 53.772,47.092 53.797,47.393C53.943,49.142 55.718,49.288 55.718,49.288C55.718,49.288 53.798,49.155 54.14,51.476C54.483,53.795 57.482,52.808 57.482,52.808L57.797,58.653C40.792,40.496 38.285,21.76 38.188,17.174C38.088,12.485 36.885,13.906 36.885,13.906C36.493,9.239 35.229,9.933 35.229,9.933C35.142,7.151 33.051,4.978 33.051,4.978C32.402,32.607 44.003,50.228 51.068,58.356C49.709,57.953 46.903,57.077 46.647,56.655C46.647,56.655 41.17,43.899 39.832,41.956C39.832,41.956 42.223,52.915 43.242,54.592C43.242,54.592 41.261,53.731 40.763,53.038C40.265,52.345 40.179,51.325 38.805,48.945C37.431,46.563 34.645,41.347 33.208,40.017C32.235,39.119 36.52,49.724 38.346,52.213L36.643,51.182C36.643,51.182 29.018,36.971 27.079,33.486C27.079,33.486 30.831,44.917 33.228,48.972C33.228,48.972 31.016,48.865 30.833,48.439C30.649,48.015 29.991,45.427 28.703,44.067C27.414,42.707 20.265,34.5 20.515,28.753C20.515,28.753 18.826,31.39 21.871,37.888C24.912,44.387 27.683,44.153 27.807,47.374C27.807,47.374 20.27,43.308 17.489,43.395C17.489,43.395 20.697,44.887 27.359,49.027C27.359,49.027 28.94,50.362 28.235,50.715C27.531,51.069 21.711,51.704 21.274,51.741C21.188,51.748 21.08,51.818 20.967,51.911C19.244,50.535 18.014,49.692 18.213,50.236C18.38,50.695 19.19,51.636 20.239,52.731C20.056,52.979 19.928,53.175 19.928,53.175C19.928,53.175 20.19,53.153 20.613,53.117C23.139,55.7 26.726,58.915 26.726,58.915L24.964,58.916C23.711,56.233 12.396,52.634 12.396,52.634C12.858,52.888 22.935,59.235 22.935,59.235C12.46,58.648 11.856,60.167 11.856,60.167C17.93,59.07 24.08,60.607 24.08,60.607C24.349,62.052 15.519,67.053 15.519,67.053C22.335,66.039 25.721,60.909 25.721,60.909L27.203,61.078C27.508,62.961 20.49,68.544 20.49,68.544C25.992,67.641 29.584,61.464 29.584,61.464L33.399,61.438C33.023,62.206 24.706,69.804 24.706,69.804C30.185,68.61 35.452,61.412 35.452,61.412L38.259,61.616C38.346,62.637 29.021,70.469 29.021,70.469C34.477,68.983 39.792,62.369 39.792,62.369L43.207,62.816L32.955,71.9C39.2,71.083 43.252,63.399 45.147,63.24C46.936,63.091 54.859,64.385 55.739,64.529L53.943,66.611L56.896,66.802C56.896,66.802 57.786,68.637 58.89,67.81C59.995,66.983 58.101,70.665 59.426,70.701C60.75,70.737 62.659,70.723 62.659,70.723C62.659,70.723 60.996,73.652 62.369,74.27C63.742,74.89 66.38,74.815 66.38,74.815C66.38,74.815 65.679,78.692 67.039,79.165C68.401,79.637 70.443,79.466 70.443,79.466C70.443,79.466 69.618,83.453 70.823,83.987C72.501,84.725 76.263,84.114 76.263,84.114C76.263,84.114 76.602,84.212 77.023,84.239C76.602,84.372 76.082,84.506 75.427,84.627C75.427,84.627 76.948,88.755 78.713,90.516C80.475,92.278 82.762,95.022 82.762,95.022L83.295,92.626C83.295,92.626 86.053,94.011 84.813,91.472L83.572,88.935ZM39.453,54.91C39.528,55.034 39.112,55.227 38.409,55.457C38.109,55.192 37.822,54.94 37.553,54.705C38.34,54.623 39.264,54.601 39.453,54.91ZM37.021,54.771L37.736,55.663C37.048,55.862 36.211,56.078 35.33,56.292C34.944,55.901 34.556,55.507 34.173,55.118C35.066,55.053 35.835,54.973 36.365,54.878C36.366,54.877 36.638,54.824 37.021,54.771ZM33.277,51.319C34.201,51.828 35.625,53.028 35.625,53.028C35.625,53.028 34.355,53.267 32.658,53.588C31.846,52.778 31.116,52.079 30.563,51.619C31.802,51.302 32.862,51.091 33.277,51.319ZM34.051,56.596C33.299,56.771 32.554,56.938 31.875,57.088C31.177,56.516 30.445,55.908 29.729,55.31C30.726,55.288 31.748,55.253 32.705,55.206C33.147,55.67 33.602,56.139 34.051,56.596ZM29.786,51.824C30.12,52.326 30.708,53.03 31.419,53.82C30.499,53.993 29.522,54.176 28.587,54.351C27.815,53.701 27.1,53.096 26.515,52.603C27.466,52.459 28.657,52.127 29.786,51.824ZM22.272,52.978C23.509,52.874 24.984,52.749 26.048,52.661C26.091,52.657 26.141,52.649 26.186,52.644C26.657,53.165 27.228,53.803 27.843,54.492C26.564,54.731 25.431,54.941 24.729,55.069C23.908,54.354 23.067,53.639 22.272,52.978ZM29.724,59.692C29.387,59.241 27.311,57.322 25.012,55.314C25.849,55.343 27.149,55.35 28.593,55.33C29.216,56.029 29.848,56.739 30.436,57.401C29.78,57.543 29.299,57.645 29.114,57.688C28.843,57.75 29.472,57.683 30.576,57.558C31.933,59.085 33.006,60.296 33.006,60.296C31.39,60.285 29.724,59.692 29.724,59.692ZM35.618,59.931C35.086,59.653 33.761,58.623 32.222,57.37C32.944,57.289 33.74,57.199 34.56,57.111C36.242,58.806 37.694,60.196 37.694,60.196L35.618,59.931ZM40.369,60.558C39.833,60.695 38.005,58.975 35.996,56.962C36.892,56.872 37.777,56.79 38.589,56.727L42.021,61.008C42.021,61.008 41.231,60.339 40.369,60.558ZM44.682,61.225C43.901,60.368 41.759,58.425 39.754,56.646C40.644,56.594 41.369,56.579 41.798,56.623C44.056,56.852 49.777,60.251 53.107,60.589C54.486,62.018 55.527,62.943 56.016,63.358L44.682,61.225ZM56.649,63.476L56.617,63.47C56.64,63.457 56.663,63.446 56.685,63.434L56.649,63.476ZM58.945,44.021C58.945,44.021 63.89,43.458 63.561,41.284C63.229,39.109 60.29,40.824 59.452,41.335L59.596,39.562C59.596,39.562 63.499,39.853 63.757,37.263C63.929,39.507 65.758,39.484 65.758,39.484C65.758,39.484 64.722,41.992 63.455,45.334C63.453,45.307 63.457,45.286 63.455,45.258C63.209,42.342 59.067,45.481 59.067,45.481L58.945,44.021ZM59.169,60.555C59.167,60.531 59.163,60.509 59.161,60.486L59.201,60.427C59.212,60.446 59.222,60.463 59.233,60.481L59.169,60.555ZM59.228,47.375C59.516,46.913 61.846,47.577 62.923,46.75C62.489,47.916 62.043,49.148 61.612,50.387C61.63,50.255 61.643,50.115 61.647,49.961C61.717,47.312 59.519,49.112 59.519,49.112C59.519,49.112 58.838,47.995 59.228,47.375ZM59.315,51.918C59.315,51.918 60.638,52.318 61.291,51.318C60.683,53.108 60.122,54.877 59.696,56.447L59.315,51.918ZM87.189,55.153C84.694,49.929 81.88,50.789 79.518,49.485C78.594,48.975 77.914,47.858 75.447,46.45C74.453,45.883 73.405,46.063 72.505,46.476C72.498,46.401 72.505,46.335 72.493,46.258C72.493,46.258 72.468,44.204 71.288,44.157C70.11,44.109 69.042,47.135 70.162,48.216C70.162,48.216 65.049,52.023 67.462,59.748C69.873,67.474 75.999,70.483 81.562,68.548C87.125,66.611 89.685,60.377 87.189,55.153Z" style="fill:white;fill-rule:nonzero;"/>
    </g>
</svg>
