<?xml version="1.0" encoding="utf-8"?>
<!-- Generator: Adobe Illustrator 22.0.1, SVG Export Plug-In . SVG Version: 6.00 Build 0)  -->
<svg version="1.1" id="Layer_1" xmlns="http://www.w3.org/2000/svg" xmlns:xlink="http://www.w3.org/1999/xlink" x="0px" y="0px"
	 viewBox="0 0 30 30" style="enable-background:new 0 0 30 30;" xml:space="preserve">
<path style="fill:#eee"  d="M7.7,8.98c1.26-0.06,2.33-0.55,3.21-1.47c0.88-0.92,1.32-2.01,1.32-3.28
	c0,1.27,0.44,2.36,1.32,3.28s1.95,1.4,3.22,1.47c-0.83,0.04-1.59,0.27-2.29,0.71c-0.69,0.43-1.24,1.01-1.65,1.73
	c-0.4,0.72-0.6,1.49-0.6,2.33c0-1.27-0.44-2.37-1.32-3.29C10.03,9.53,8.96,9.04,7.7,8.98z M11.02,19.75
	c0.95-0.04,1.76-0.41,2.42-1.1c0.66-0.69,0.99-1.51,0.99-2.47c0,0.96,0.33,1.78,0.99,2.47c0.66,0.69,1.46,1.06,2.41,1.1
	c-0.95,0.04-1.75,0.41-2.41,1.1c-0.66,0.69-0.99,1.51-0.99,2.47c0-0.96-0.33-1.78-0.99-2.47C12.77,20.16,11.97,19.8,11.02,19.75z
	 M17.83,15.01c0.95-0.04,1.75-0.41,2.41-1.1c0.66-0.69,0.98-1.51,0.98-2.48c0,0.96,0.33,1.78,0.99,2.47s1.47,1.06,2.42,1.1
	c-0.95,0.04-1.76,0.41-2.42,1.1c-0.66,0.69-0.99,1.51-0.99,2.47c0-0.96-0.33-1.78-0.98-2.47C19.58,15.42,18.78,15.05,17.83,15.01z"
	/>
</svg>
